<?xml version="1.0" standalone="no"?>
<!DOCTYPE svg PUBLIC "-//W3C//DTD SVG 20010904//EN"
 "http://www.w3.org/TR/2001/REC-SVG-20010904/DTD/svg10.dtd">
<svg version="1.0" xmlns="http://www.w3.org/2000/svg"
 width="200.000000pt" height="200.000000pt" viewBox="0 0 200.000000 200.000000"
 preserveAspectRatio="xMidYMid meet">
<metadata>
Created by potrace 1.14, written by Peter Selinger 2001-2017
</metadata>
<g transform="translate(0.000000,200.000000) scale(0.100000,-0.100000)"
fill="#000000" stroke="none">
<path d="M0 1000 l0 -1000 1000 0 1000 0 0 1000 0 1000 -1000 0 -1000 0 0
-1000z m770 -240 c0 -55 1 -100 3 -100 1 0 20 9 42 20 48 24 72 25 125 4 63
-25 94 -87 95 -184 0 -102 -28 -154 -104 -193 -44 -22 -68 -27 -125 -27 -39 0
-88 5 -108 11 l-38 10 0 273 c0 150 3 276 7 279 3 4 28 7 55 7 l48 0 0 -100z
m635 -74 c18 -8 38 -24 45 -35 11 -21 11 -21 41 8 58 59 165 48 201 -19 16
-31 18 -55 16 -195 l-3 -160 -50 0 -50 0 -3 144 c-1 86 -7 150 -14 158 -6 7
-26 13 -44 13 -56 0 -68 -31 -74 -185 l-5 -130 -47 -3 -46 -3 -4 144 c-2 103
-7 149 -17 160 -17 21 -60 22 -87 3 -17 -13 -20 -31 -24 -158 l-5 -143 -50 0
-50 0 -3 203 -2 202 45 0 c38 0 45 -3 45 -19 0 -23 16 -36 25 -20 13 20 70 49
98 49 15 0 43 -6 62 -14z"/>
<path d="M812 600 c-32 -13 -42 -49 -42 -146 l0 -84 44 0 c82 0 127 69 107
162 -15 66 -54 90 -109 68z"/>
</g>
</svg>
